<?xml version="1.0" encoding="UTF-8"?><svg xmlns="http://www.w3.org/2000/svg" width="70.99cm" height="6.29cm" xmlns:xlink="http://www.w3.org/1999/xlink" viewBox="0 0 2012.38 178.36"><defs><clipPath id="f"><path id="g" d="M2012.38,0v157.35s-355.64,12.05-461.61,12.05h-.85c-105.32-.04-141.64-7.99-435.1,5.62-39.3,1.82-73.81,2.87-104.47,3.34-198.92,3.05-236.45-18.33-375.79-11.37-25.29,1.26-58.33,2.03-96.05,2.43C336.37,171.53-.34,162.97-.34,162.97l.08-89.78.05-50.34s56.02.99,94.56,7.9c23.3,4.18,114.15,25.88,197.85,41.68,53.13-9.53,100.78-21.99,189.17-23.46,128.97-2.14,206.94,30.49,287.19,57.1,19.88.04,49.52-.91,84.4-5.27,64.52-8.07,200.74-43.02,275.12-39.44,22.83,1.1,48.16,4.43,73.67,8.43,26.64-3.41,53.88-4.83,82.2-3.04,108.35,6.83,120.19,32.66,273.32,28.71,125.12-3.22,208.05-34.69,269.35-42.89,69.85-27.56,126.18-53.69,185.76-52.57Z" style="fill:none;"/></clipPath><linearGradient id="h" x1="-.21" y1="87.46" x2="2012.39" y2="87.46" gradientUnits="userSpaceOnUse"><stop offset="0" stop-color="#7bb9de"/><stop offset=".14" stop-color="#8982af"/><stop offset=".29" stop-color="#d08271"/><stop offset=".43" stop-color="#dc855c"/><stop offset=".57" stop-color="#f0bd71"/><stop offset=".71" stop-color="#b1be9d"/><stop offset=".86" stop-color="#95bdcc"/><stop offset="1" stop-color="#b9c6d6"/></linearGradient></defs><g style="isolation:isolate;"><g id="d"><g id="e"><g style="clip-path:url(#f);"><rect id="i" x="-.21" y="-18.84" width="2012.6" height="212.6" style="fill:url(#h);"/></g></g><g id="j"><path d="M538.51,169.42C336.37,171.53-.34,162.97-.34,162.97v-89.75s.03-.01.08-.03c2.38-.82,57.24-19.36,133.84-16.43,33.63,1.29,65.05,12.04,97.1,24.17,42.6,16.13,86.32,34.7,137.85,36.69,73.98,2.86,105.76,37.87,169.98,51.8Z" style="fill:#231f20; mix-blend-mode:soft-light;"/><path d="M2012.38,0v157.35s-355.64,12.05-461.61,12.05h-.85c-105.32-.04-141.64-7.99-435.1,5.62-39.3,1.82-73.81,2.87-104.47,3.34-198.92,3.05-236.45-18.33-375.79-11.37-25.29,1.26-58.33,2.03-96.05,2.43C336.37,171.53-.34,162.97-.34,162.97l.16-54.59s105.01-24.51,174.87-24.89c20.82-.11,39.19-1.06,55.99-2.56,22.65-2.02,42.44-5.07,61.52-8.5,53.13-9.53,100.78-21.99,189.17-23.46,128.97-2.14,206.94,30.49,287.19,57.1,33.8,11.21,68,21.35,106.59,27.37,28.08,4.39,58.49,6.6,92.75,5.45,62.12-2.08,126.25-6.45,191.33-10.99,115.7-8.08,234.37-16.69,350-13.9,140.12,3.38,237.58-29.95,317.39-61.43,69.85-27.56,126.18-53.69,185.76-52.57Z" style="fill:#58504d; mix-blend-mode:soft-light;"/><path d="M1826.62,52.57c-79.81,31.48-177.27,64.81-317.39,61.43-115.63-2.79-234.3,5.82-350,13.9-65.08,4.54-129.21,8.91-191.33,10.99-34.26,1.15-64.67-1.06-92.75-5.45,25.85-1.7,61.1-5.58,105.22-13.98,75.71-14.43,146.1-40.03,221.38-49.67,26.64-3.41,53.88-4.83,82.2-3.04,108.35,6.83,120.19,32.66,273.32,28.71,125.12-3.22,208.05-34.69,269.35-42.89Z" style="fill:#9d9fa1; mix-blend-mode:soft-light;"/><path d="M1201.75,69.79c-75.28,9.64-145.67,35.24-221.38,49.67-44.12,8.4-79.37,12.28-105.22,13.98-38.59-6.02-72.79-16.16-106.59-27.37,19.88.04,49.52-.91,84.4-5.27,64.52-8.07,200.74-43.02,275.12-39.44,22.83,1.1,48.16,4.43,73.67,8.43Z" style="fill:#fff; mix-blend-mode:soft-light;"/><path d="M1010.35,178.36c-198.92,3.05-236.45-18.33-375.79-11.37-25.29,1.26-58.33,2.03-96.05,2.43C336.37,171.53-.34,162.97-.34,162.97l.08-89.78.05-50.34s56.02.99,94.56,7.9c23.3,4.18,114.15,25.88,197.85,41.68,54.77,10.34,106.48,18.15,134.24,16.88,70.17-3.21,213.64,11.24,265.03,23.79,42.7,10.43,182.22,48.89,318.88,65.26Z" style="fill:#a2a3a5; mix-blend-mode:soft-light;"/><path d="M2012.38,77.62v79.73s-355.64,12.05-461.61,12.05h-.85c31.72-11.75,87.71-30.49,121.56-30.21,49.25.42,131.33-48.58,252.12-49.88,44.08-.47,71.61-5.5,88.78-11.69Z" style="fill:#2d2a2b; mix-blend-mode:soft-light;"/></g></g></g></svg>