<?xml version="1.0" encoding="UTF-8"?><svg xmlns="http://www.w3.org/2000/svg" width="70.99cm" height="6.29cm" xmlns:xlink="http://www.w3.org/1999/xlink" viewBox="0 0 2012.38 178.36"><defs><clipPath id="g"><path id="h" d="M1859.35,19.86c-33.95-3.39-71.75-1.09-109.86,4.47,0,0-.02.01-.02,0-.2-.04-.39-.07-.59-.1-1.28-.24-2.57-.47-3.86-.69-.81-.15-1.63-.29-2.45-.43-1.67-.29-3.34-.57-5.02-.85-1.33-.22-2.67-.44-4.01-.65-4.64-.75-9.32-1.45-14.04-2.11-1.43-.21-2.87-.41-4.3-.6-2.24-.3-4.48-.6-6.73-.87-2.03-.27-4.08-.51-6.12-.75-2.31-.27-4.62-.53-6.94-.78-2.12-.23-4.25-.45-6.39-.66-.33-.03-.65-.07-.97-.1-1.94-.18-3.89-.37-5.84-.54-.4-.04-.8-.07-1.2-.1-1.75-.16-3.51-.31-5.27-.44-.84-.07-1.68-.14-2.52-.2-2.41-.19-4.82-.36-7.25-.52-1.6-.11-3.2-.21-4.81-.3-.84-.05-1.68-.1-2.52-.14-.76-.05-1.51-.09-2.27-.12-1.94-.11-3.89-.21-5.85-.29-1.31-.06-2.63-.11-3.95-.16-.66-.03-1.32-.05-1.99-.07-2.09-.08-4.19-.14-6.29-.2-3.76-.1-7.47-.19-11.14-.28-11.21-.26-22.02-.48-32.45-.63-3.38-.05-6.73-.1-10.04-.14h-.24c-3.3-.04-6.55-.07-9.77-.1h-.24c-3.24-.03-6.44-.05-9.61-.06-6.4-.02-12.66-.03-18.79,0-2.6.01-5.16.03-7.71.05-.42,0-.84.01-1.25.01-1.97.02-3.93.04-5.88.06h-.04c-1.93.02-3.85.05-5.75.08-.96.02-1.92.03-2.87.05-8.59.15-16.91.36-25.02.63-2.6.09-5.18.18-7.73.29-3.04.12-6.06.25-9.04.39-1.47.07-2.93.14-4.38.22-1.92.1-3.82.2-5.7.3-1.55.09-3.09.18-4.62.27-3.36.21-6.68.42-9.97.65-1.45.1-2.89.2-4.33.31-2.68.2-5.34.41-7.98.63-.66.05-1.32.11-1.98.16-1.34.12-2.67.24-4,.35-.87.08-1.73.15-2.59.23-.97.1-1.94.19-2.91.28-.91.08-1.83.17-2.74.26-1.82.18-3.63.37-5.43.55-.91.09-1.81.19-2.71.29-1.32.14-2.63.29-3.93.43-1.38.15-2.76.31-4.13.47-4.09.48-8.15.99-12.19,1.52-1.25.16-2.5.33-3.75.5-2.85.39-5.69.79-8.51,1.21-1.29.19-2.58.38-3.86.57-.27.04-.53.08-.79.12-1.27.2-2.53.39-3.8.59-.48.08-.96.15-1.44.23-1.05.17-2.09.34-3.14.51-2.45.4-4.89.8-7.33,1.22-1.75.3-3.49.61-5.24.92-.39.07-.78.14-1.16.21-1.53.27-3.06.55-4.59.84-.7.13-1.4.26-2.11.39-3.5.66-7.01,1.34-10.53,2.04-.88.18-1.76.35-2.64.53-1.76.36-3.53.72-5.3,1.09-3.93.82-7.87,1.67-11.84,2.55-1.28.28-2.55.56-3.83.85-5.03,1.13-10.09,2.31-15.22,3.54-3.14.75-6.3,1.52-9.48,2.31-19.6,4.85-40.15,10.41-62.34,16.75h-.01c-112.34.45-187.14,14.15-236.72,22.89-28.69,5.06-64.65,4.67-104.31,1.54-.1-.03-.2-.06-.3-.1-1.79-.56-3.57-1.13-5.35-1.71-1.92-.63-3.84-1.27-5.75-1.92-1.27-.43-2.54-.87-3.81-1.31-.72-.25-1.45-.51-2.17-.76-1.79-.63-3.57-1.27-5.35-1.92-1.68-.6-3.36-1.22-5.04-1.85-.2-.08-.41-.15-.61-.23-1.52-.56-3.04-1.14-4.56-1.72-.85-.33-1.7-.65-2.55-.98-2.64-1.02-5.28-2.06-7.92-3.12-.62-.25-1.25-.5-1.87-.75-3.55-1.42-7.1-2.88-10.65-4.36-.2-.09-.41-.18-.62-.26-1.88-.78-3.76-1.58-5.64-2.38-2.09-.89-4.19-1.79-6.29-2.69-1.68-.72-3.36-1.45-5.04-2.19-4.03-1.75-8.07-3.53-12.13-5.34-1.67-.74-3.34-1.49-5.02-2.24C695.16-2.53,441.84,9.72,355.21,34.2c-1.69.48-3.39.96-5.11,1.43-4.25,1.18-8.57,2.36-12.94,3.52-3.47.92-6.97,1.84-10.5,2.75-1.71.45-3.43.89-5.15,1.32-1.44.37-2.88.74-4.33,1.1-2.9.73-5.81,1.46-8.72,2.17-2.91.73-5.83,1.44-8.75,2.14-2.76.67-5.52,1.33-8.28,1.99-7.42,1.76-14.82,3.48-22.13,5.14-49.09-22.03-97.66-33.7-146.7-35.68C52.92,17.25-.34,43.62-.34,43.62v51.37s54.9-11.98,150.23-14.54c49.27-1.33,109.34-.13,178.21,6.54,2.87.27,5.76.56,8.66.86-3.32.85-5.1,1.33-5.1,1.33,70.63,43.9,218.48,64.62,257.09,65.56,32.48.79,154.23,11.58,293.54-3.51,162.34.36,283.11-16.01,283.11-16.01,0,0,161.87-20.12,323.18-36.11,31.4-3.11,62.77-6.07,92.92-8.69h.01c80.26-6.99,151.89-11.59,192.3-10.46,81.74,2.3,152.78,11.03,195.59,17.45,27.16,4.08,42.98,7.23,42.98,7.23v-54.91s-4.48-15.03-153.03-29.87ZM1884.22,61.04c-1.12-.41-2.25-.81-3.38-1.22h.02c1.13.41,2.25.81,3.36,1.22Z" style="fill:none;"/></clipPath><linearGradient id="i" x1="-.21" y1="87.46" x2="2012.39" y2="87.46" gradientUnits="userSpaceOnUse"><stop offset="0" stop-color="#7bb9de"/><stop offset=".14" stop-color="#8982af"/><stop offset=".29" stop-color="#d08271"/><stop offset=".43" stop-color="#dc855c"/><stop offset=".57" stop-color="#f0bd71"/><stop offset=".71" stop-color="#b1be9d"/><stop offset=".86" stop-color="#95bdcc"/><stop offset="1" stop-color="#b9c6d6"/></linearGradient></defs><g style="isolation:isolate;"><g id="e"><g id="f"><g style="clip-path:url(#g);"><rect id="j" x="-.21" y="-18.84" width="2012.6" height="212.6" style="fill:url(#i);"/></g></g><g id="k"><path d="M1749.47,24.33c-26.72,3.91-53.59,9.41-79.4,15.69h-.01c-24.15-1.19-48.24-1.93-71.79-2.05-70.91-.35-153.99,9.47-239.12,23.54h-.02c-46.06-3.45-87.52-4.76-124.84-4.61h-.06c22.19-6.34,42.74-11.9,62.34-16.75,3.18-.79,6.34-1.56,9.48-2.31,5.13-1.23,10.19-2.41,15.22-3.54,1.28-.29,2.55-.57,3.83-.85,3.97-.88,7.91-1.73,11.84-2.55,1.77-.37,3.54-.73,5.3-1.09.88-.18,1.76-.35,2.64-.53,3.52-.7,7.03-1.38,10.53-2.04.71-.13,1.41-.26,2.11-.39,1.53-.29,3.06-.57,4.59-.84.38-.07.77-.14,1.16-.21,1.75-.31,3.49-.62,5.24-.92,2.44-.42,4.88-.82,7.33-1.22,1.05-.17,2.09-.34,3.14-.51.48-.08.96-.15,1.44-.23,1.27-.2,2.53-.39,3.8-.59.26-.04.52-.08.79-.12,1.28-.19,2.57-.38,3.86-.57,2.82-.42,5.66-.82,8.51-1.21,1.25-.17,2.5-.34,3.75-.5,4.04-.53,8.1-1.04,12.19-1.52,1.37-.16,2.75-.32,4.13-.47,1.3-.14,2.61-.29,3.93-.43.9-.1,1.8-.2,2.71-.29,1.8-.18,3.61-.37,5.43-.55.91-.09,1.83-.18,2.74-.26.97-.09,1.94-.18,2.91-.28.86-.08,1.72-.15,2.59-.23,1.33-.11,2.66-.23,4-.35.66-.05,1.32-.11,1.98-.16,2.64-.22,5.3-.43,7.98-.63,1.44-.11,2.88-.21,4.33-.31,3.29-.23,6.61-.44,9.97-.65,1.53-.09,3.07-.18,4.62-.27,1.88-.1,3.78-.2,5.7-.3,1.45-.08,2.91-.15,4.38-.22,2.98-.14,6-.27,9.04-.39,1.32-.06,2.65-.11,3.99-.15,1.28-.05,2.58-.1,3.88-.14,8.12-.27,16.44-.48,25.03-.63.95-.02,1.91-.03,2.87-.05,1.9-.03,3.83-.06,5.76-.08h.04c1.95-.02,3.91-.04,5.88-.06.41,0,.83-.01,1.25-.01,2.55-.02,5.11-.04,7.71-.05,6.13-.03,12.39-.02,18.8,0,3.17.01,6.37.03,9.61.06h.24c3.22.03,6.47.06,9.77.1h.24c3.31.04,6.67.09,10.05.14,10.43.15,21.24.37,32.46.63,3.61.09,7.25.18,10.95.28,2.1.06,4.2.12,6.29.2.67.02,1.33.04,1.99.07,1.32.05,2.64.1,3.95.16,1.96.08,3.91.18,5.85.29.76.03,1.51.07,2.27.12.84.04,1.68.09,2.52.14,1.61.09,3.21.19,4.81.3,2.43.16,4.84.33,7.25.52.84.06,1.68.13,2.52.2,1.76.13,3.52.28,5.27.44.4.03.8.06,1.2.1,1.95.17,3.9.36,5.84.54.32.03.64.07.97.1,2.14.21,4.27.43,6.39.66,2.32.25,4.63.51,6.94.78,2.04.24,4.09.48,6.12.75,2.25.27,4.49.57,6.73.87,1.43.19,2.87.39,4.3.6,4.72.66,9.4,1.36,14.04,2.11,1.34.21,2.68.43,4.01.65,1.68.28,3.35.56,5.02.85.82.14,1.64.28,2.45.43,1.29.22,2.58.45,3.86.69.2.03.39.06.59.1Z" style="fill:#d8d9da; mix-blend-mode:soft-light;"/><path d="M1670.06,40.02c-54.36,13.22-104,29.85-137.57,42.1-64.01-10.19-121.58-16.75-173.34-20.61,85.13-14.07,168.21-23.89,239.12-23.54,23.55.12,47.64.86,71.79,2.05Z" style="fill:#a2a3a5; mix-blend-mode:soft-light;"/><path d="M1359.13,61.51c-13.9,2.29-27.85,4.7-41.81,7.2-3.12.56-6.23,1.12-9.35,1.68-3.48.63-6.96,1.27-10.44,1.91-1.75.32-3.5.64-5.25.97-6.74,1.25-13.49,2.52-20.23,3.8-3.01.58-6.02,1.15-9.03,1.73-34.74,6.68-69.19,13.7-102.66,20.64-1.68.34-3.35.69-5.02,1.04-13.15,2.73-26.13,5.45-38.92,8.14-9.38,1.96-18.65,3.9-27.8,5.82-3.66.76-7.3,1.52-10.92,2.28-7.53,1.57-14.96,3.12-22.3,4.63-6.78,1.4-13.48,2.78-20.09,4.13-1.71.35-3.43.7-5.13,1.05-3.08.62-6.15,1.24-9.19,1.86-3.72.75-7.42,1.49-11.08,2.22h0c-16.49,3.28-32.3,6.33-47.29,9.06-27.08,4.94-54.01,8.71-80.32,11.56h-.05c-88.09-.19-188.42-5.3-288.33-20.62-26.9-4.12-53.78-8.99-80.38-14.7-1.99-.43-3.97-.85-5.95-1.26-1.98-.42-3.95-.84-5.92-1.24-1.96-.41-3.91-.81-5.86-1.2-1.97-.41-3.94-.8-5.9-1.19-1.68-.34-3.36-.67-5.04-1-2.21-.44-4.42-.87-6.62-1.29-1.93-.37-3.86-.74-5.79-1.1-2.06-.39-4.13-.78-6.19-1.16-3.69-.68-7.36-1.35-11.02-2-14.24-2.53-28.23-4.83-41.95-6.9-1.53-.24-3.05-.46-4.57-.69-1.21-.18-2.42-.36-3.63-.53-5.44-.8-10.85-1.56-16.21-2.29-1.92-.26-3.85-.52-5.76-.77-1.98-.26-3.96-.52-5.93-.77-1.96-.26-3.93-.51-5.88-.75-6.68-.83-13.29-1.61-19.83-2.35-3.04-.33-6.05-.66-9.06-.98-1.9-.2-3.78-.4-5.66-.59,1.26-.32,2.74-.7,4.43-1.12.27-.07.54-.14.83-.21.11-.03.23-.06.35-.09.77-.19,1.58-.39,2.42-.6.67-.16,1.37-.34,2.08-.51.7-.17,1.42-.35,2.16-.53.51-.12,1.03-.25,1.57-.38.62-.15,1.26-.3,1.91-.46,4.83-1.16,10.4-2.47,16.61-3.88.91-.21,1.83-.42,2.77-.63.66-.15,1.33-.3,2-.45,6.53-1.46,13.67-3.01,21.33-4.61.63-.14,1.27-.27,1.92-.4,5.4-1.12,11.06-2.26,16.92-3.41,1.08-.21,2.16-.42,3.25-.63,2.12-.41,4.26-.82,6.43-1.23.07-.01.14-.03.21-.04,2.76-.52,5.55-1.04,8.38-1.56,2-.36,4.03-.72,6.07-1.09,1.66-.3,3.34-.59,5.03-.88,1.68-.3,3.38-.59,5.09-.88,1.47-.25,2.95-.5,4.43-.75.99-.16,1.99-.33,2.99-.49,1.59-.26,3.18-.52,4.78-.78,16.01-2.57,32.75-4.96,49.76-6.94,1.68-.19,3.37-.39,5.06-.57,1.61-.18,3.22-.36,4.84-.53.3-.03.61-.07.92-.1,1.45-.15,2.91-.3,4.37-.45,3.45-.35,6.91-.68,10.38-.98,3.42-.31,6.85-.59,10.27-.85,1.71-.14,3.43-.26,5.14-.38,1.71-.12,3.42-.24,5.12-.34,1.21-.08,2.41-.15,3.61-.22,2.49-.15,4.98-.29,7.47-.4,1.39-.07,2.77-.13,4.15-.19.08-.01.16-.01.24-.01,1.27-.05,2.55-.1,3.82-.15,1.27-.05,2.55-.09,3.82-.12.43-.02.86-.03,1.3-.04,1.58-.05,3.16-.08,4.74-.11.14-.01.29-.01.44-.01,1.8-.04,3.6-.07,5.4-.08,1.81-.02,3.62-.03,5.43-.03,10.09,0,19.98.28,29.56.9,4.56.29,9.17.63,13.82,1,1.29.1,2.58.21,3.87.31,2.02.17,4.04.35,6.07.53,7.67.68,15.46,1.45,23.34,2.29,3.23.34,6.47.7,9.72,1.07,3.26.36,6.53.74,9.81,1.13,7.82.92,15.7,1.89,23.63,2.9,4.25.54,8.52,1.09,12.8,1.65,5.7.75,11.41,1.5,17.14,2.27,2.11.28,4.22.56,6.33.85,10.07,1.35,20.15,2.72,30.2,4.07,14.2,1.9,28.34,3.77,42.29,5.5,2.19.28,4.37.54,6.55.81.14.02.28.03.41.05,2.32.28,4.63.56,6.93.83.34.04.68.08,1.02.12,1.96.23,3.92.46,5.86.68,6.94.8,13.81,1.55,20.61,2.24,1.48.15,2.95.3,4.42.44,1.34.14,2.68.27,4.01.39,1.41.14,2.81.27,4.21.39,2.02.19,4.03.37,6.03.55,1.21.1,2.42.2,3.63.3,1.29.11,2.57.22,3.86.31t.02.01h.05s.01,0,.02.01c7.14,2.24,14.35,4.32,21.65,6.23.88.23,1.77.46,2.66.68,1.77.46,3.54.9,5.33,1.32,1.09.27,2.19.53,3.29.78,6.58,1.53,13.25,2.9,20.04,4.11.97.17,1.94.34,2.92.51,1.29.22,2.59.44,3.9.64.94.15,1.88.3,2.82.44.45.07.9.14,1.35.21.9.13,1.81.26,2.72.39.9.13,1.81.25,2.72.37.72.1,1.45.2,2.18.29.69.09,1.38.18,2.07.26,2.05.25,4.11.49,6.19.7,1.47.17,2.95.31,4.44.45.94.09,1.89.18,2.84.25,1.95.18,3.92.34,5.9.47,1.11.08,2.22.16,3.33.22.25.03.5.04.75.05.88.06,1.76.11,2.65.15,1.83.11,3.68.19,5.53.26.73.03,1.46.06,2.19.08.69.03,1.38.05,2.07.07,1.12.04,2.25.06,3.38.08.93.02,1.86.04,2.79.05,48.33.67,103.55-7.23,171.23-27.59,6-1.81,11.88-3.56,17.63-5.28,2.27-.67,4.51-1.34,6.74-1.99.04-.02.08-.03.12-.04,2.22-.65,4.41-1.3,6.59-1.94.06-.02.11-.03.16-.05,2.17-.63,4.32-1.26,6.46-1.88.06-.02.13-.04.19-.06,2.12-.62,4.23-1.23,6.32-1.83,1.16-.34,2.31-.67,3.46-1,2.06-.6,4.11-1.18,6.14-1.76.09-.03.17-.05.26-.08h.07c37.32-.15,78.78,1.16,124.84,4.61Z" style="fill:#9d9fa1; mix-blend-mode:soft-light;"/><path d="M1532.49,82.12c-27.25,9.94-43.91,16.99-43.91,16.99-161.31,15.99-323.18,36.11-323.18,36.11,0,0-120.77,16.37-283.11,16.01,26.31-2.85,53.24-6.62,80.32-11.56,96.17-17.53,225.9-47.95,354.71-70.96,13.96-2.5,27.91-4.91,41.81-7.2h.02c23.99,1.79,49.23,4.16,75.79,7.2,30.73,3.52,63.21,7.94,97.55,13.41Z" style="fill:#606060; mix-blend-mode:soft-light;"/><path d="M882.29,151.23c-139.31,15.09-261.06,4.3-293.54,3.51-38.61-.94-186.46-21.66-257.09-65.56,0,0,1.78-.48,5.1-1.33,53.99,5.53,113.22,14.42,176.77,28.06,125.39,26.92,256.94,35.08,368.76,35.32Z" style="fill:#d8d9da; mix-blend-mode:soft-light;"/><path d="M1880.84,59.82c-60.82-7.95-136.02-16.09-210.77-19.8,25.81-6.28,52.68-11.78,79.4-15.69,0,.01.02,0,.02,0,4.61.84,9.16,1.71,13.68,2.62,2.94.59,5.85,1.19,8.75,1.8,6.04,1.28,12,2.62,17.87,4.01,1.45.34,2.89.68,4.33,1.03,4.32,1.04,8.58,2.11,12.8,3.21,2.81.72,5.61,1.46,8.37,2.21,1.39.37,2.77.75,4.14,1.13,1.37.38,2.74.76,4.1,1.14,1.49.42,2.97.84,4.44,1.26,1.23.36,2.45.71,3.67,1.07,1.34.39,2.68.78,4,1.18,1.33.39,2.65.79,3.97,1.19,1.32.39,2.63.79,3.93,1.2,1.31.4,2.6.8,3.9,1.21,4.52,1.41,8.97,2.85,13.34,4.3,1.2.4,2.4.8,3.6,1.2,3.14,1.06,6.24,2.12,9.3,3.19,1.21.42,2.41.85,3.6,1.27,1.19.42,2.38.85,3.56,1.27Z" style="fill:#2d2a2b; mix-blend-mode:soft-light;"/><path d="M2012.38,49.73v30.06s-.01,0-.04-.01c-.03,0-.07-.01-.12-.02h-.03s-.11-.02-.19-.04c-.12-.02-.26-.05-.43-.07-.06-.01-.13-.03-.2-.04-.43-.08-.99-.18-1.69-.3-.24-.05-.5-.09-.78-.14-.72-.13-1.56-.28-2.51-.44-.36-.06-.74-.13-1.14-.2-2.14-.37-4.74-.82-7.78-1.33-.21-.03-.42-.07-.64-.11-6.02-1.02-13.67-2.29-22.74-3.74-1.02-.16-2.08-.33-3.14-.5-.22-.03-.45-.07-.68-.1-.85-.14-1.7-.27-2.57-.41-6.04-.96-12.62-1.98-19.68-3.04-.64-.1-1.28-.2-1.93-.29-.65-.1-1.3-.2-1.96-.3-1.15-.17-2.31-.35-3.48-.52-12.39-1.85-26.08-3.82-40.82-5.83-1.56-.21-3.14-.43-4.73-.64-.41-.06-.82-.12-1.23-.17-1.92-.26-3.86-.52-5.82-.78-.93-.13-1.86-.25-2.8-.37-1.45-.2-2.92-.39-4.39-.58h-.02c-1.18-.42-2.37-.85-3.56-1.27-1.19-.42-2.39-.85-3.6-1.27-3.06-1.07-6.16-2.13-9.3-3.19-1.2-.4-2.4-.8-3.6-1.2-4.37-1.45-8.82-2.89-13.34-4.3-1.3-.41-2.59-.81-3.9-1.21-1.3-.41-2.61-.81-3.93-1.2-1.32-.4-2.64-.8-3.97-1.19-1.32-.4-2.66-.79-4-1.18-1.22-.36-2.44-.71-3.67-1.07-1.47-.42-2.95-.84-4.44-1.26-1.36-.38-2.73-.76-4.1-1.14-1.37-.38-2.75-.76-4.14-1.13-2.76-.75-5.56-1.49-8.37-2.21-4.22-1.1-8.48-2.17-12.8-3.21-1.44-.35-2.88-.69-4.33-1.03-5.87-1.39-11.83-2.73-17.87-4.01-2.9-.61-5.81-1.21-8.75-1.8-4.52-.91-9.07-1.78-13.68-2.62.04-.01.07-.01.11-.02,22.74-3.31,45.35-5.46,67.11-5.93,5.94-.13,11.81-.14,17.6-.01,8.54.19,16.9.68,25.04,1.49,148.55,14.84,153.03,29.87,153.03,29.87Z" style="fill:#c9cacc; mix-blend-mode:soft-light;"/><path d="M2012.38,79.79v24.85s-15.82-3.15-42.98-7.23c-11.11-5.51-24.18-11.65-39.01-18.04-.93-.4-1.86-.8-2.8-1.2-.94-.4-1.89-.81-2.85-1.21-.95-.4-1.91-.81-2.88-1.21-4.84-2.03-9.85-4.07-15.01-6.11-.78-.31-1.57-.62-2.36-.93-.25-.1-.51-.2-.76-.3-1.75-.69-3.51-1.37-5.3-2.06-.35-.13-.7-.27-1.05-.4-1.07-.41-2.15-.82-3.24-1.23-1.11-.42-2.22-.84-3.35-1.26-2.16-.8-4.35-1.61-6.57-2.42-1.11-.41-2.23-.81-3.36-1.22,23.54,3.08,44.91,6.13,63.27,8.89,42.05,6.31,68.25,11.08,68.25,11.08Z" style="fill:#333132; mix-blend-mode:soft-light;"/><path d="M1969.4,97.41c-42.81-6.42-113.85-15.15-195.59-17.45-40.41-1.13-112.04,3.47-192.3,10.46h-.01c-16.74-3-33.08-5.77-49.01-8.3,11.18-4.08,24.14-8.65,38.47-13.41,28.69-9.54,62.84-19.87,99.1-28.69h.01c74.75,3.71,149.95,11.85,210.77,19.8,1.13.41,2.26.81,3.38,1.22,2.22.81,4.41,1.62,6.57,2.42,1.13.42,2.24.84,3.35,1.26,1.09.41,2.17.82,3.24,1.23.35.13.7.27,1.05.4,1.79.69,3.55,1.37,5.3,2.06.25.1.51.2.76.3.79.31,1.58.62,2.36.93,5.16,2.04,10.17,4.08,15.01,6.11.97.4,1.93.81,2.88,1.21.96.4,1.91.81,2.85,1.21.94.4,1.87.8,2.8,1.2,14.83,6.39,27.9,12.53,39.01,18.04Z" style="fill:#716663; mix-blend-mode:soft-light;"/><path d="M1581.5,90.42c-30.15,2.62-61.52,5.58-92.92,8.69,0,0,16.66-7.05,43.91-16.99,15.93,2.53,32.27,5.3,49.01,8.3Z" style="fill:#2d2a2b; mix-blend-mode:soft-light;"/><path d="M1234.22,56.9c-.09.03-.17.05-.26.08-2.03.58-4.08,1.16-6.14,1.76-1.15.33-2.3.66-3.46,1-2.09.6-4.2,1.21-6.32,1.83-.06.02-.13.04-.19.06-2.14.62-4.29,1.25-6.46,1.88-.05.02-.1.03-.16.05-2.18.64-4.37,1.29-6.59,1.94-.04.01-.08.02-.12.04-2.23.65-4.47,1.32-6.74,1.99-5.75,1.72-11.63,3.47-17.63,5.28-67.68,20.36-122.9,28.26-171.23,27.59-.93-.01-1.86-.03-2.79-.05-1.13-.02-2.26-.04-3.38-.08-.69-.02-1.38-.04-2.07-.07-.73-.02-1.46-.05-2.19-.08-1.85-.07-3.7-.15-5.53-.26-.89-.04-1.77-.09-2.65-.15-.25-.01-.5-.02-.75-.05-1.11-.06-2.22-.14-3.33-.22-1.98-.13-3.95-.29-5.9-.47-.95-.07-1.9-.16-2.84-.25-1.49-.14-2.97-.28-4.44-.45-2.08-.21-4.14-.45-6.19-.7-.69-.08-1.38-.17-2.07-.26-.73-.09-1.46-.19-2.18-.29-.91-.12-1.82-.24-2.72-.37-.91-.13-1.82-.26-2.72-.39-.45-.07-.9-.14-1.35-.21-.94-.14-1.88-.29-2.82-.44-1.31-.2-2.61-.42-3.9-.64-.98-.17-1.95-.34-2.92-.51-6.79-1.21-13.46-2.58-20.04-4.11-1.1-.25-2.2-.51-3.29-.78-1.79-.42-3.56-.86-5.33-1.32-.89-.22-1.78-.45-2.66-.68-7.3-1.91-14.51-3.99-21.65-6.23t-.02-.01c1.14.09,2.27.18,3.4.27,38.3,2.88,73.02,3.1,100.89-1.81,49.59-8.74,124.39-22.44,236.74-22.89Z" style="fill:#58504d; mix-blend-mode:soft-light;"/><path d="M893.19,81.33h-.05s-.01,0-.02-.01c-1.29-.09-2.57-.2-3.86-.31-1.21-.1-2.42-.2-3.63-.3-2-.18-4.01-.36-6.03-.55-1.4-.12-2.8-.25-4.21-.39-1.33-.12-2.67-.25-4.01-.39-1.47-.14-2.94-.29-4.42-.44-6.8-.69-13.67-1.44-20.61-2.24-1.94-.22-3.9-.45-5.86-.68-.34-.04-.68-.08-1.02-.12-2.3-.27-4.61-.55-6.93-.83-.13-.02-.27-.03-.41-.05-2.18-.27-4.36-.53-6.55-.81-13.95-1.73-28.09-3.6-42.29-5.5-10.05-1.35-20.13-2.72-30.2-4.07-2.11-.29-4.22-.57-6.33-.85-5.73-.77-11.44-1.52-17.14-2.27-4.28-.56-8.55-1.11-12.8-1.65-7.93-1.01-15.81-1.98-23.63-2.9-3.28-.39-6.55-.77-9.81-1.13-3.25-.37-6.49-.73-9.72-1.07-7.88-.84-15.67-1.61-23.34-2.29-2.03-.18-4.05-.36-6.07-.53-1.29-.1-2.58-.21-3.87-.31-4.65-.37-9.26-.71-13.82-1-9.58-.62-19.47-.9-29.56-.9-1.81,0-3.62,0-5.43.03-1.8.01-3.6.04-5.4.08-.15,0-.3,0-.44.01-1.58.03-3.16.06-4.74.11-.44.01-.87.02-1.3.04-1.27.03-2.55.07-3.82.12-1.27.05-2.55.1-3.82.15-.08,0-.16,0-.24.01-1.38.06-2.76.12-4.15.19-2.49.11-4.98.25-7.47.4-1.2.07-2.4.14-3.61.22-1.7.1-3.41.22-5.12.34-1.71.12-3.43.24-5.14.38-3.42.26-6.85.54-10.27.85-3.47.3-6.93.63-10.38.98-1.46.15-2.92.3-4.37.45-.31.03-.62.07-.92.1-1.62.17-3.23.35-4.84.53-1.69.18-3.38.38-5.06.57-17.01,1.98-33.75,4.37-49.76,6.94-1.6.26-3.19.52-4.78.78-1,.16-2,.33-2.99.49-1.48.25-2.96.5-4.43.75-1.71.29-3.41.58-5.09.88-1.69.29-3.37.58-5.03.88-2.04.37-4.07.73-6.07,1.09-2.83.52-5.62,1.04-8.38,1.56-.07.01-.14.03-.21.04-2.17.41-4.31.82-6.43,1.23-1.09.21-2.17.42-3.25.63-5.86,1.15-11.52,2.29-16.92,3.41-.65.13-1.29.26-1.92.4-7.66,1.6-14.8,3.15-21.33,4.61-.67.15-1.34.3-2,.45-.94.21-1.86.42-2.77.63-6.21,1.41-11.78,2.72-16.61,3.88-.65.16-1.29.31-1.91.46-.54.13-1.06.26-1.57.38-.74.18-1.46.36-2.16.53-.71.17-1.41.35-2.08.51-.84.21-1.65.41-2.42.6-.12.03-.24.06-.35.09-.29.07-.56.14-.83.21-1.69.42-3.17.8-4.43,1.12-2.9-.3-5.79-.59-8.66-.86-43.11-4.17-82.76-6.2-118.48-6.81-16.5-.29-32.16-.27-46.93-.02-4.34.08-8.61.18-12.8.29h0s24.61-4.52,59.6-11.74c17.86-3.69,38.43-8.09,59.81-12.95,7.31-1.66,14.71-3.38,22.13-5.14,2.76-.66,5.52-1.32,8.28-1.99,2.92-.7,5.84-1.41,8.75-2.14,2.91-.71,5.82-1.44,8.72-2.17,1.45-.36,2.89-.73,4.33-1.1,1.72-.43,3.44-.87,5.15-1.32,3.53-.91,7.03-1.83,10.5-2.75,4.37-1.16,8.69-2.34,12.94-3.52,1.72-.47,3.42-.95,5.11-1.43,36.79-10.39,103.63-18.58,176.59-20.89,28.14-.89,57.18-.9,85.76.18,71.85,2.68,140.77,12.24,184.96,32.01,1.68.75,3.35,1.5,5.02,2.24,4.06,1.81,8.1,3.59,12.13,5.34,1.68.74,3.36,1.47,5.04,2.19,2.1.9,4.2,1.8,6.29,2.69,1.88.8,3.76,1.6,5.64,2.38.21.08.42.17.62.26,3.55,1.48,7.1,2.94,10.65,4.36.62.25,1.25.5,1.87.75,2.54,1.02,5.07,2.02,7.61,3,.1.04.21.08.31.12.85.33,1.7.65,2.55.98,1.52.58,3.04,1.16,4.56,1.72.2.08.41.15.61.23,1.68.63,3.36,1.25,5.04,1.85,1.78.65,3.56,1.29,5.35,1.92.72.25,1.45.51,2.17.76,1.27.44,2.54.88,3.81,1.31,1.91.65,3.83,1.29,5.75,1.92,1.78.58,3.56,1.15,5.35,1.71.1.04.2.07.3.1Z" style="fill:#58504d; mix-blend-mode:soft-light;"/><path d="M328.1,86.99c-43.11-4.17-82.76-6.2-118.48-6.81-16.5-.29-32.16-.27-46.93-.02-4.34.08-8.61.18-12.8.29C58.89,82.89,4.73,93.92,0,94.92c-.23.05-.34.07-.34.07v-51.37s.11-.06.34-.16c4.24-2.03,47.92-22.27,106.38-23.53,3.49-.08,7.04-.08,10.63-.01,1.85.03,3.71.09,5.59.16,49.01,1.98,97.55,13.64,146.61,35.64.03.01.06.03.09.04,8.85,3.98,17.72,8.29,26.62,12.95,10.69,5.59,21.41,11.68,32.18,18.28Z" style="fill:#2d2a2b; mix-blend-mode:soft-light;"/><path d="M2012.69,104.64v73.72H-.34v-83.44c4.73-1,58.91-12.03,149.94-14.47,49.29-1.33,109.38-.13,178.27,6.54,2.87.27,5.76.56,8.66.86-3.32.85-5.1,1.33-5.1,1.33,70.65,43.9,218.55,64.62,257.17,65.56,32.49.79,154.28,11.58,293.64-3.51,162.39.36,283.2-16.01,283.2-16.01,0,0,161.92-20.12,323.28-36.11,31.41-3.11,62.79-6.07,92.95-8.69h.01c80.29-6.99,151.94-11.59,192.36-10.46,81.77,2.3,152.83,11.03,195.65,17.45,27.17,4.08,42.99,7.23,42.99,7.23Z" style="fill:#364f75;"/><path d="M122.6,20.08c49.01,1.98,97.55,13.64,146.61,35.64-.05.02-.11.03-.16.04-49.11-22.03-97.69-33.7-146.75-35.68-1.77-.07-3.54-.12-5.29-.16,1.85.03,3.71.09,5.59.16Z" style="fill:#fff;"/><path d="M892.89,81.23c.1.04.2.07.3.1h-.05s-.01,0-.02-.01c-.09-.02-.19-.05-.28-.09-1.79-.56-3.57-1.13-5.35-1.71-1.92-.63-3.84-1.27-5.75-1.92-1.27-.43-2.55-.87-3.82-1.31-.72-.25-1.45-.51-2.17-.76-1.79-.63-3.57-1.27-5.35-1.92-1.68-.6-3.36-1.22-5.04-1.85-.2-.08-.41-.15-.61-.23-1.52-.56-3.04-1.14-4.56-1.72-.85-.33-1.7-.65-2.55-.98-.1-.04-.21-.08-.31-.12-2.54-.98-5.07-1.98-7.61-3-.63-.25-1.26-.5-1.88-.75-3.55-1.42-7.1-2.88-10.65-4.36-.2-.09-.41-.18-.62-.26-1.88-.78-3.76-1.58-5.64-2.38-2.09-.89-4.19-1.79-6.29-2.69-1.68-.72-3.36-1.45-5.04-2.19-4.04-1.75-8.08-3.53-12.14-5.34-1.67-.74-3.34-1.49-5.02-2.24-44.17-19.76-113.06-29.31-184.88-32.01,71.85,2.68,140.77,12.24,184.96,32.01,1.68.75,3.35,1.5,5.02,2.24,4.06,1.81,8.1,3.59,12.13,5.34,1.68.74,3.36,1.47,5.04,2.19,2.1.9,4.2,1.8,6.29,2.69,1.88.8,3.76,1.6,5.64,2.38.21.08.42.17.62.26,3.55,1.48,7.1,2.94,10.65,4.36.62.25,1.25.5,1.87.75,2.54,1.02,5.07,2.02,7.61,3,.1.04.21.08.31.12.85.33,1.7.65,2.55.98,1.52.58,3.04,1.16,4.56,1.72.2.08.41.15.61.23,1.68.63,3.36,1.25,5.04,1.85,1.78.65,3.56,1.29,5.35,1.92.72.25,1.45.51,2.17.76,1.27.44,2.54.88,3.81,1.31,1.91.65,3.83,1.29,5.75,1.92,1.78.58,3.56,1.15,5.35,1.71Z" style="fill:#fff;"/><path d="M893.19,81.33c1.14.09,2.27.18,3.4.27-1.13-.09-2.25-.18-3.38-.26t-.02-.01Z" style="fill:#fff;"/><path d="M1489.76,12.62c1.32-.06,2.65-.11,3.99-.15-1.29.04-2.58.1-3.85.15-3.04.12-6.06.25-9.04.39-1.47.07-2.93.14-4.38.22-1.92.1-3.82.2-5.7.3-1.55.09-3.09.18-4.63.27-3.36.21-6.68.42-9.97.65-1.45.1-2.89.2-4.33.31-2.68.2-5.34.41-7.98.63-.66.05-1.32.11-1.98.16-1.34.12-2.67.24-4,.35-.87.08-1.73.15-2.6.23-.97.1-1.94.19-2.91.28-.91.08-1.83.17-2.74.26-1.82.18-3.63.37-5.43.55-.91.09-1.81.19-2.71.29-1.32.14-2.63.29-3.93.43-1.38.15-2.76.31-4.13.47-4.09.48-8.15.99-12.2,1.52-1.25.16-2.5.33-3.75.5-2.85.39-5.69.79-8.51,1.21-1.29.19-2.58.38-3.86.57-.27.04-.53.08-.79.12-1.27.2-2.53.39-3.8.59-.48.08-.96.15-1.44.23-1.05.17-2.09.34-3.14.51-2.46.4-4.9.8-7.34,1.22-1.75.3-3.49.61-5.24.92-.39.07-.78.14-1.16.21-1.53.27-3.06.55-4.59.84-.7.13-1.4.26-2.11.39-3.5.66-7.01,1.34-10.53,2.04-.88.18-1.77.35-2.65.53-1.76.36-3.53.72-5.3,1.09-3.93.82-7.87,1.67-11.84,2.55-1.28.28-2.55.56-3.83.85-5.03,1.13-10.1,2.31-15.23,3.54-3.14.75-6.3,1.52-9.48,2.31-19.61,4.85-40.16,10.41-62.36,16.75h-.06c22.19-6.34,42.74-11.9,62.34-16.75,3.18-.79,6.34-1.56,9.48-2.31,5.13-1.23,10.19-2.41,15.22-3.54,1.28-.29,2.55-.57,3.83-.85,3.97-.88,7.91-1.73,11.84-2.55,1.77-.37,3.54-.73,5.3-1.09.88-.18,1.76-.35,2.64-.53,3.52-.7,7.03-1.38,10.53-2.04.71-.13,1.41-.26,2.11-.39,1.53-.29,3.06-.57,4.59-.84.38-.07.77-.14,1.16-.21,1.75-.31,3.49-.62,5.24-.92,2.44-.42,4.88-.82,7.33-1.22,1.05-.17,2.09-.34,3.14-.51.48-.08.96-.15,1.44-.23,1.27-.2,2.53-.39,3.8-.59.26-.04.52-.08.79-.12,1.28-.19,2.57-.38,3.86-.57,2.82-.42,5.66-.82,8.51-1.21,1.25-.17,2.5-.34,3.75-.5,4.04-.53,8.1-1.04,12.19-1.52,1.37-.16,2.75-.32,4.13-.47,1.3-.14,2.61-.29,3.93-.43.9-.1,1.8-.2,2.71-.29,1.8-.18,3.61-.37,5.43-.55.91-.09,1.83-.18,2.74-.26.97-.09,1.94-.18,2.91-.28.86-.08,1.72-.15,2.59-.23,1.33-.11,2.66-.23,4-.35.66-.05,1.32-.11,1.98-.16,2.64-.22,5.3-.43,7.98-.63,1.44-.11,2.88-.21,4.33-.31,3.29-.23,6.61-.44,9.97-.65,1.53-.09,3.07-.18,4.62-.27,1.88-.1,3.78-.2,5.7-.3,1.45-.08,2.91-.15,4.38-.22,2.98-.14,6-.27,9.04-.39Z" style="fill:#fff;"/><path d="M1816.71,18.38c-21.72.48-44.3,2.64-66.99,5.95,0,0-.02.01-.02,0-.03-.01-.07-.01-.1-.02,22.74-3.31,45.35-5.46,67.11-5.93Z" style="fill:#fff;"/><path d="M2012.69,0v49.73s-4.48-15.03-153.08-29.87c-8.22-.82-16.67-1.31-25.3-1.49-5.79-.13-11.66-.12-17.6.01-21.76.47-44.37,2.62-67.11,5.93-.16-.03-.32-.06-.49-.08-1.28-.24-2.57-.47-3.86-.69-.82-.15-1.64-.29-2.46-.43-1.67-.29-3.34-.57-5.02-.85-1.33-.22-2.67-.44-4.01-.65-4.64-.75-9.32-1.45-14.04-2.11-1.43-.21-2.87-.41-4.3-.6-2.25-.3-4.49-.6-6.74-.87-2.03-.27-4.08-.51-6.12-.75-2.31-.27-4.62-.53-6.94-.78-2.12-.23-4.25-.45-6.39-.66-.33-.03-.65-.07-.97-.1-1.94-.18-3.89-.37-5.85-.54-.4-.04-.8-.07-1.2-.1-1.75-.16-3.51-.31-5.27-.44-.84-.07-1.68-.14-2.52-.2-2.41-.19-4.82-.36-7.25-.52-1.6-.11-3.2-.21-4.81-.3-.84-.05-1.68-.1-2.52-.14-.76-.05-1.51-.09-2.27-.12-1.94-.11-3.89-.21-5.86-.29-1.31-.06-2.63-.11-3.95-.16-.66-.03-1.32-.05-1.99-.07-2.09-.08-4.19-.14-6.29-.2h-.19c-3.7-.1-7.34-.19-10.95-.28-11.22-.26-22.03-.48-32.46-.63-3.38-.05-6.74-.1-10.05-.14h-.24c-3.3-.04-6.55-.07-9.77-.1h-.24c-3.24-.03-6.44-.05-9.61-.06-6.41-.02-12.67-.03-18.8,0-2.6.01-5.16.03-7.71.05-.42,0-.84.01-1.25.01-1.97.02-3.93.04-5.88.06h-.04c-1.93.02-3.86.05-5.76.08-.96.02-1.92.03-2.87.05-8.59.15-16.91.36-25.03.63-1.3.04-2.6.09-3.88.14-1.34.04-2.67.09-3.99.15-3.04.12-6.06.25-9.04.39-1.47.07-2.93.14-4.38.22-1.92.1-3.82.2-5.7.3-1.55.09-3.09.18-4.62.27-3.36.21-6.68.42-9.97.65-1.45.1-2.89.2-4.33.31-2.68.2-5.34.41-7.98.63-.66.05-1.32.11-1.98.16-1.34.12-2.67.24-4,.35-.87.08-1.73.15-2.59.23-.97.1-1.94.19-2.91.28-.91.08-1.83.17-2.74.26-1.82.18-3.63.37-5.43.55-.91.09-1.81.19-2.71.29-1.32.14-2.63.29-3.93.43-1.38.15-2.76.31-4.13.47-4.09.48-8.15.99-12.19,1.52-1.25.16-2.5.33-3.75.5-2.85.39-5.69.79-8.51,1.21-1.29.19-2.58.38-3.86.57-.27.04-.53.08-.79.12-1.27.2-2.53.39-3.8.59-.48.08-.96.15-1.44.23-1.05.17-2.09.34-3.14.51-2.45.4-4.89.8-7.33,1.22-1.75.3-3.49.61-5.24.92-.39.07-.78.14-1.16.21-1.53.27-3.06.55-4.59.84-.7.13-1.4.26-2.11.39-3.5.66-7.01,1.34-10.53,2.04-.88.18-1.76.35-2.64.53-1.76.36-3.53.72-5.3,1.09-3.93.82-7.87,1.67-11.84,2.55-1.28.28-2.55.56-3.83.85-5.03,1.13-10.09,2.31-15.22,3.54-3.14.75-6.3,1.52-9.48,2.31-19.6,4.85-40.15,10.41-62.34,16.75h-.01c-112.35.45-187.15,14.15-236.74,22.89-27.87,4.91-62.59,4.69-100.89,1.81-1.13-.09-2.26-.18-3.4-.27-.1-.03-.2-.06-.3-.1-1.79-.56-3.57-1.13-5.35-1.71-1.92-.63-3.84-1.27-5.75-1.92-1.27-.43-2.54-.87-3.81-1.31-.72-.25-1.45-.51-2.17-.76-1.79-.63-3.57-1.27-5.35-1.92-1.68-.6-3.36-1.22-5.04-1.85-.2-.08-.41-.15-.61-.23-1.52-.56-3.04-1.14-4.56-1.72-.85-.33-1.7-.65-2.55-.98-.1-.04-.21-.08-.31-.12-2.54-.98-5.07-1.98-7.61-3-.62-.25-1.25-.5-1.87-.75-3.55-1.42-7.1-2.88-10.65-4.36-.2-.09-.41-.18-.62-.26-1.88-.78-3.76-1.58-5.64-2.38-2.09-.89-4.19-1.79-6.29-2.69-1.68-.72-3.36-1.45-5.04-2.19-4.03-1.75-8.07-3.53-12.13-5.34-1.67-.74-3.34-1.49-5.02-2.24-44.19-19.77-113.11-29.33-184.96-32.01-28.58-1.08-57.62-1.07-85.76-.18-73.05,2.29-139.99,10.49-176.81,20.89-1.7.48-3.4.96-5.12,1.43-4.25,1.18-8.57,2.36-12.94,3.52-3.47.92-6.97,1.84-10.5,2.75-1.71.45-3.44.89-5.16,1.32-1.44.37-2.88.74-4.33,1.1-2.9.73-5.81,1.46-8.72,2.17-2.91.73-5.83,1.44-8.75,2.14-2.76.67-5.52,1.33-8.29,1.99-7.37,1.75-14.71,3.45-21.97,5.1-49.06-22-97.6-33.66-146.61-35.64-1.88-.07-3.74-.13-5.59-.16-3.59-.07-7.14-.07-10.63.01C47.75,21.12,3.91,41.42-.34,43.46V0h2013.03Z" style="fill:#fff;"/></g></g></g></svg>